<svg width="1544" height="1623" viewBox="0 0 1544 1623" fill="none" xmlns="http://www.w3.org/2000/svg">
<g filter="url(#filter0_d_1_140)">
<path d="M1117.67 954.257C1126.18 954.012 1134.96 954.393 1143.08 957.204C1147.75 958.82 1152.4 961.48 1154.45 966.23C1159.36 977.626 1132.45 1025.04 1126.74 1038.2C1150.78 1020.15 1175.93 1030.48 1179.68 1060.85C1209.84 1051.3 1225.95 1027.87 1252.86 1014.17C1260.53 1010.27 1283.7 1007.86 1287.57 1018.33C1288.22 1030.78 1267.59 1030.82 1267.61 1048.27C1267.62 1064.66 1271.01 1078.45 1273.09 1094.51C1290.09 1090.52 1302.13 1085.57 1317.27 1076.24C1322.67 1072.92 1334.46 1060.37 1339.28 1059C1339.78 1059.12 1341.45 1059.39 1341.74 1059.77C1365.71 1091.62 1320.64 1107.54 1296.63 1113.43C1288.51 1115.42 1281.13 1116.21 1272.62 1116.94C1265.32 1143.49 1248.46 1155.06 1221.36 1156.54C1189.81 1158.27 1157.12 1131.24 1182.64 1101.56C1192.57 1090.02 1216.32 1091.18 1229.79 1091.64C1228.04 1078.98 1226.44 1068.55 1227.84 1055.76C1214.92 1066.09 1204.74 1072.2 1189.66 1078.83L1178.13 1082.48C1169.19 1111.48 1150.32 1142.25 1119.71 1150.99C1094.33 1158.24 1073.99 1148.18 1066.92 1122.93C1055.37 1134.91 1040.55 1151.72 1023.25 1152.85C1005.58 1154.01 995.069 1143.53 993.858 1126.75C980.735 1141.05 959.323 1158.66 938.087 1150.95C913.621 1140.76 917.996 1110.68 926.296 1089.94C938.099 1060.45 972.511 1019.3 1008.45 1030.6C1015.12 1032.7 1019.5 1040.06 1022.02 1046.54C1027.69 1034.9 1029 1030.45 1044.01 1034.78C1051.62 1036.97 1059.8 1039.33 1057.57 1048.94C1054.33 1062.88 1028.33 1107.87 1034.21 1119.02C1043.07 1125.57 1067.16 1095.31 1069.5 1088.42C1082.95 1048.69 1099.98 1009.99 1112.48 969.966C1113.77 965.851 1114.91 956.793 1117.67 954.257ZM1230.38 1113.69C1227.63 1111.05 1218.1 1111.56 1213.99 1111.65C1212.84 1111.68 1211.69 1111.74 1210.54 1111.84C1188.62 1116.54 1196.37 1135.92 1217.49 1132.61C1223.76 1129.9 1232.83 1120.83 1230.38 1113.69ZM1131.71 1058.37C1120.34 1062.34 1116.14 1071.42 1110.81 1081.56C1106.07 1090.56 1093.1 1127.27 1113.26 1123.94C1127.27 1116.4 1136.06 1098.98 1140.71 1084.24C1143.8 1074.47 1146.31 1058.86 1131.71 1058.37ZM995.884 1056.87C971.157 1065.47 944.311 1125.11 973.483 1118.84C989.973 1110.35 1006.55 1089.05 1009.29 1070.48C1010.49 1062.31 1003.49 1056.68 995.884 1056.87Z" fill="white"/>
<path d="M727.932 956.593C737.998 956.515 755.372 959.22 762.641 967.746C768.029 974.378 761.694 986.106 759.201 992.779C752.833 1009.83 698.526 1106.98 710.168 1120.56C723.306 1127.43 745.727 1091.53 751.915 1082.59C760.986 1092.73 763.053 1099.91 754.502 1112.27C739.88 1133.39 709.602 1164.66 681.967 1147.37C674.488 1142.69 671.476 1134.02 669.944 1125.62C661.166 1136.07 650.663 1147.75 637.133 1151.43C616.348 1157.09 604.53 1145.09 599.534 1126.44C572.83 1152.07 534.086 1173.13 509.227 1132.34C497.797 1144.53 480.047 1159.65 462.199 1156.3C455.988 1155.19 450.505 1151.58 447.035 1146.31C430.897 1122.18 464.866 1080.8 459.679 1074.07C444.765 1073 405.527 1142.94 400.916 1157.15C399.75 1160.74 374.115 1152.74 374.281 1145.94C374.988 1117.01 393.193 1082.91 404.913 1055.93C415.2 1033.18 424.956 1010.19 434.172 986.98C436.877 979.984 438.241 972.476 440.43 965.84C442.847 958.514 463.556 965.201 468.338 967.205C479.253 971.778 480.575 978.733 476.289 989.022C464.923 1016.31 450.023 1041.95 437.648 1068.82C449.354 1056.57 486.783 1015.43 504.895 1035.91C517.911 1050.62 473.973 1109.82 483.062 1122.69C490.736 1127.18 501.757 1113.15 506.369 1107.71C508.074 1075.13 532.684 1038.67 565.337 1030.71C580.147 1026.87 599.923 1030.64 602.666 1048.56C606.714 1075.02 581.683 1100.05 558.34 1107.94C554.472 1109.24 546.045 1110.97 543.949 1114.04C544.278 1118.91 549.398 1125.04 554.078 1126.13C572.885 1130.51 592.074 1108.82 601.862 1094.93C604.752 1089.38 605.653 1083.2 608.192 1077.48C619.732 1051.51 646.88 1019.83 678.574 1028.05C685.907 1029.96 690.942 1036.56 694.368 1043.34C704.276 1016.78 717.501 991.173 724.892 963.647C725.631 960.896 725.93 958.672 727.932 956.593ZM682.688 1065.72C679.257 1058.33 677.092 1054.84 668.057 1055.35C643.308 1066.47 622.318 1127.1 651.244 1118.14C667.33 1108.27 681.782 1084.67 682.688 1065.72ZM580.905 1055.9C579.034 1053.12 577.014 1052.59 573.711 1053.02C559.457 1059.82 552.013 1070.99 545.806 1085.49C545.057 1087.24 544.762 1088.77 544.969 1090.66L545.786 1091.44C546.902 1091.02 548.042 1090.64 549.121 1090.15C558.774 1085.27 582.31 1067.63 580.905 1055.9Z" fill="white"/>
<path d="M348.933 917.643C382.914 913.492 434.708 926.188 423.993 971.391C416.938 1001.15 393.677 1026.25 368.75 1042.8C337.96 1063.24 308.715 1061.62 287.595 1028.75C318.447 1023.39 345.82 1012.26 367.125 988.437C385.193 968.23 386.206 949.304 353.631 952.92C326.788 955.899 300.942 967.662 277.423 980.399C261.881 988.816 246.191 999.506 234.673 1013.06C208.074 1043.82 265.172 1053.64 283.839 1058.13C291.357 1059.94 298.824 1061.95 306.234 1064.16C318.671 1067.94 331.165 1072.58 341.623 1080.38C371.35 1102.55 364.768 1138.47 345.167 1164.4C324.718 1190.04 289.801 1201.47 256.395 1201.49C206.155 1201.51 163.462 1162.07 206.21 1116.5C215.583 1106.5 230.207 1102.22 244.134 1102.72C206.907 1159.86 272.389 1180.66 307.696 1141.61C309.334 1139.8 311.422 1136.49 312.44 1134.25C326.284 1103.74 283.768 1093.77 262.684 1089.12C241.733 1084.19 220.289 1080.51 201.075 1070.39C147.546 1042.2 177.825 993.831 214.429 968.6C255.161 940.524 299.695 921.875 348.933 917.643Z" fill="white"/>
<path d="M934.157 927.99C971.166 924.927 998.797 948.531 984.359 986.932C973.72 1015.23 943.914 1034.49 918.184 1047.18C909.522 1051.45 899.422 1054.95 890.278 1058.9C880.663 1085.71 874.691 1107.51 863.67 1134.95C901.563 1153.01 957.464 1169.59 999.071 1169.85C1007.59 1169.88 1016.1 1169.34 1024.55 1168.23C1029.14 1167.64 1034.37 1166.16 1038.93 1165.81C1040.2 1165.71 1040.61 1166.85 1041.36 1167.92C1041.89 1171.32 1041.02 1174 1039.56 1177.01C1014.93 1227.55 948.73 1209.59 909.811 1192.39C891.097 1184.74 867.278 1171.88 848.985 1162.39C845.042 1167.19 841.803 1170.4 837.267 1174.81C817.79 1193.73 775.851 1200.55 756.012 1178.77C744.204 1165.81 749.24 1143.97 763.349 1133.76C781.735 1120.46 802.931 1120.5 824.412 1123.26C830.786 1104.84 836.537 1086.21 841.656 1067.4C817.748 1067.11 786.045 1064.09 796.419 1028.9C797.398 1025.58 800.604 1020.72 803.826 1019.3C806.942 1020.54 809.847 1026.28 811.943 1027.84C822.599 1035.76 838 1036.82 850.18 1036.52C864.1 994.619 885.584 938.549 934.157 927.99ZM813.876 1146.73C806.381 1145.1 802.998 1144.35 795.184 1144.9C768.242 1148.28 764.447 1171.15 790.858 1166.07C800.525 1161.88 808.129 1155.63 813.876 1146.73ZM955.612 958.528C952.822 955.429 950.046 956.094 946.24 956.441C923.274 966.35 907.062 1001.63 900.134 1024.44L906.651 1020.81C920.92 1012.28 933.476 1002.62 943.992 989.559C949.45 982.782 959.697 967.622 955.612 958.528Z" fill="white"/>
<path d="M833.683 239.764C842.996 247.053 852.466 255.401 861.636 263.029C883.644 281.336 905.551 299.763 927.357 318.31L973.011 356.943C985.164 367.156 997.344 377.052 1009.08 387.766C1004.65 394.912 1000.58 402.513 996.058 409.578C990.032 418.998 977.911 417.671 967.926 417.497C967.775 445.623 967.773 473.749 967.919 501.875L967.932 664.322L1138.7 685.635C1139.34 696.535 1138.88 707.278 1138.48 718.172C1129.31 718.86 1120.15 719.675 1111 720.618L1110.93 801.661C1119.13 801.604 1127.34 801.398 1135.54 801.044C1131.37 804.486 1123.67 809.338 1117.93 810.492C1088.57 816.399 1054.67 815.286 1025 812.327C1019.48 811.777 1010.96 806.046 1005 805.532C1001.18 805.203 995.724 805.832 991.922 806.147C974.43 807.593 967.407 804.791 952.798 796.104C941.495 800.126 930.827 804.653 918.98 799.939C904.131 794.032 893.36 791.612 879.342 801.417C901.207 797.921 906.382 806.128 926.846 810.478C934.986 812.08 943.467 808.491 951.569 809.578C957.549 810.381 962.935 814.988 969.073 816.002C977.735 817.433 986.338 815.232 994.997 816.075C1000.1 816.572 1004.72 819.944 1009.45 821.662C1021.63 825.675 1035.87 824.046 1048.43 823.018C1023.54 831.903 990.734 837.706 964.392 833.485C956.977 832.297 947.946 825.782 941.66 825.623C930.451 825.341 922.459 832.556 910.122 833.033C891.778 833.743 878.744 827.722 860.324 828.92C890.333 849.934 907.959 849.193 941.872 838.25C915.105 854.879 882.893 860.373 852.127 853.557C848.629 854.707 842.894 857.721 839.308 859.225C826.002 864.803 814.825 864.595 800.972 861.63C815.139 856.337 822.11 851.343 831.147 839.281C826.62 839.65 818.388 841.328 813.898 842.465C796.759 846.806 788.241 847.509 771.129 843.695C775.359 841.939 781.889 838.62 785.192 835.5C776.035 835.564 762.9 834.856 754.164 835.72C747.508 836.378 736.789 839.645 728.986 840.82C699.781 845.182 670.038 844.389 641.107 838.48C625.909 834.884 617.166 830.807 603.526 824.146C593.737 828.103 583.562 831.03 573.166 832.879C548.766 836.967 528.855 832.729 508.814 818.522C511.644 818.528 514.472 818.41 517.291 818.167C530.215 816.958 537.254 811.632 545.23 801.971C562.675 810.568 566.83 813.727 586.94 811.114C566.909 809.017 560.545 805.846 545.34 793.175C514.975 807.483 479.236 810.765 446.551 802.341C431.457 798.451 422.844 792.99 415.209 779.507C419.569 781.253 424.754 782.85 429.413 783.301C450.62 785.357 461.263 782.113 477.51 769.636C489.814 783.067 497.75 784.968 515.384 783.713C496.361 779.545 492.506 775.95 479.525 761.702C458.547 767.022 455.343 767.634 438.414 753.851C438.027 753.957 437.638 754.054 437.246 754.141C407.747 760.991 387.971 746.578 381.544 717.68C401.096 738.417 424.23 730.823 446.98 719.873C464.278 737.326 472.982 740.035 495.178 727.891C503.54 742.771 512.444 751.092 528.023 757.922C528.185 745.541 527.992 732.726 527.965 720.311L504.723 716.036C504.407 708.126 504.531 699.794 504.534 691.845C494.951 690.459 482.832 685.903 473.197 686.25C470.508 686.348 461.428 688.627 458.308 689.214C448.193 691.126 437.788 690.874 427.778 688.475C415.362 685.377 413.002 683.669 399.951 685.695C390.025 687.236 375.668 681.039 367.463 675.49C376.656 675.667 385.054 675.674 393.741 672.162C396.382 671.103 398.87 669.695 401.138 667.974C404.265 665.589 410.465 658.554 413.498 659.351C424.071 662.128 429.588 674.172 443.641 673.681C455.301 673.272 463.211 666.792 470.782 658.932C482.229 670.175 488.805 676.181 504.469 680.062L504.541 406.022C485.64 405.18 475.444 402.285 463.891 385.787C473.108 379.759 491.393 363.19 500.574 355.388L566.703 299.459C575.385 292.106 584.369 284.123 593.318 277.108C595.072 275.795 597.557 275.166 599.699 274.817C664.445 264.275 729.785 256.067 794.479 245.27L807.523 243.523C816.235 242.215 824.955 240.963 833.683 239.764ZM646.318 803.214C633.058 801.496 621.319 788.155 609.294 789.667C607.844 789.863 605.81 789.842 605.008 790.698C628.529 811.146 645.76 820.996 677.496 813.371C699.014 827.197 715.076 829.03 736.617 813.403C739.107 811.434 741.69 809.444 744.14 807.439C718.143 816.781 703.095 818.803 680.581 800.713C667.545 803.218 659.722 804.95 646.318 803.214ZM875.691 742.435C874.191 742.491 871.358 742.507 869.979 742.699C854.205 744.312 834.606 747.641 819.462 744.346C819.424 751.615 818.415 818.733 820.047 820.771C821.349 821.069 821.289 821.015 822.621 820.77C826.917 820.35 831.208 819.878 835.492 819.355C835.391 799.597 835.428 779.839 835.606 760.081C847.559 758.33 862.009 756.848 874.081 755.749L875.691 742.435ZM1076.63 723.868C1075.02 723.96 1072.42 724.021 1070.91 724.207C1060.85 725 1049.77 725.896 1039.72 727.138C1039.68 746.59 1039.29 766.03 1040.02 785.459C1049.28 785.519 1058.23 786.524 1067.28 786.614C1062.99 788.049 1058.34 789.718 1054.05 791.032L1041.41 795.065C1051.8 798.199 1065.65 799.408 1076.64 799.707C1077.71 775.725 1077.17 747.944 1076.63 723.868ZM997.89 731.25C975.06 733.199 950.194 735.207 927.56 737.625C927.692 746.203 927.919 754.959 927.914 763.522C940.679 763.823 953.663 764.391 966.38 764.58L978.198 765.11C973.111 767.533 968.043 769.994 962.993 772.494C977.297 778.676 989.786 780.446 1004.99 782.962C1005.02 767.711 1005.73 745.341 1004.82 730.697L997.89 731.25ZM563.174 727.303C562.922 738.955 562.762 752.481 563.269 764.12C575.473 763.599 581.264 762.629 592.706 758.271C596.292 759.972 600.259 761.964 603.895 763.46C619.739 761.075 631.939 759.631 648.125 759.971L656.421 759.975L656.426 744.84C643.861 741.988 631.494 740.123 618.895 737.682C600.254 734.069 581.908 730.473 563.174 727.303ZM702.012 760.157C709.328 759.764 716.626 759.072 723.886 758.084L724.694 757.639C723.086 756.502 704.991 753.086 702.137 752.756L702.012 760.157ZM724.518 729.024C737.409 741.641 747.144 743.363 764.493 746.89C770.58 748.128 777.378 749.73 783.479 750.64L783.535 739.017L750.746 732.991C741.594 731.321 733.83 729.586 724.518 729.024ZM683.498 417.949C682.75 438.624 682.901 459.924 682.838 480.648L682.726 578.677L682.741 676.895C682.749 696.042 682.497 717.513 683.037 736.484L694.397 736.496L700.503 736.475C701.452 727.195 700.961 713.269 700.922 703.545L700.895 651.34L700.699 493.719C700.688 469.065 699.847 442.252 700.752 417.802L689.379 417.743L683.498 417.949ZM992.396 681.646C986.844 680.918 974.549 679.253 969.346 679.716L812.714 692.861C785.2 695.174 756.558 697.981 729.087 699.797C761.551 711.875 784.536 706.788 817.758 704.533L933.371 696.41C928.136 698.302 920.896 699.093 915.34 699.922C897.059 702.647 878.691 704.31 860.613 708.34C858.077 708.906 855.101 709.49 852.548 709.831C836.458 711.802 817.4 713.789 801.048 714.771C829.56 724.682 860.519 721.231 890.004 718.563L943.932 713.609L1121.42 697.021L1019.71 685.149C1010.6 684.028 1001.5 682.86 992.396 681.646ZM579.896 679.406C573.351 678.536 535.53 674.681 531.016 675.63C537.572 678.856 621.575 691.838 633.76 693.25C637.035 693.629 652.761 692.545 656.877 691.991L657.183 691.322C638.108 682.133 601.383 682.263 579.896 679.406ZM761.092 659.425C759.265 659.462 754.448 659.463 752.798 659.706C739.147 660.687 725.078 661.799 711.443 662.553C710.766 670.713 710.641 678.811 710.001 686.843C713.003 686.707 716.119 686.52 719.111 686.437C732.914 684.907 747.65 685.023 760.994 683.467C761.031 675.533 761.18 667.336 761.092 659.425ZM778.052 426.099L777.967 586.171C777.913 618.415 777.391 650.197 778.028 682.451C782.459 682.008 787.077 681.453 791.513 681.362L791.584 520.882L791.559 470.64C791.541 460.748 791.265 449.479 791.72 439.711C818.354 439.479 844.99 439.429 871.625 439.56L873.702 439.688C875.178 441.843 874.463 461.444 874.463 465.664L874.573 510.342L874.44 676.403C878.738 676.068 883.82 675.543 888.069 675.462L888.084 516.279C888.242 486.346 888.21 456.413 887.989 426.48C872.994 425.431 857.117 426.044 842.019 426.076L788.723 425.746L778.052 426.099ZM940.767 650.974C939.633 650.457 939.59 650.586 938.316 650.724C928.595 651.328 911.759 651.948 902.451 653.492C902.389 657.084 901.72 671.608 903.053 673.729C904.682 674.203 904.871 674.115 906.529 674.083C917.673 673.032 931.192 672.841 941.562 671.612C941.638 667.346 942.382 654.047 940.767 650.974ZM544.062 641.62C539.879 641.297 535.216 641.114 531.046 641.236C534.403 643.256 551.994 645.393 556.696 646.255C575.782 649.754 595.682 652.307 614.816 655.254C631.545 657.83 640.069 657.709 656.424 655.917L656.836 655.358C651.258 651.809 636.664 649.068 629.981 648.413C601.414 645.61 572.686 643.831 544.062 641.62ZM758.969 624.693C744.936 625.366 725.033 625.628 711.769 627.604C711.62 631.955 710.678 648.332 712.222 651.23C712.532 651.291 713.605 651.526 713.875 651.531C729.507 651.266 745.687 649.493 761.12 649.479C761.283 645.014 762.423 628.552 760.573 625.167C760.217 625.055 759.296 624.737 758.969 624.693ZM941.312 618.344C937.756 618.423 931.899 618.368 928.53 618.713C919.947 619.185 911.03 619.472 902.504 620.04C902.359 627.295 902.065 635.329 902.693 642.533C907.021 642.455 910.8 642.232 915.122 641.91C922.726 641.293 933.969 640.487 941.503 640.471C941.666 633.203 941.927 625.582 941.312 618.344ZM541.712 607.521C538.476 607.344 534.551 607.11 531.335 607.242C532.388 609.094 554.049 611.82 557.464 612.346C574.03 614.904 590.647 617.124 607.304 619.005C624.741 620.98 638.739 622.673 656.383 620.118L657.347 619.649C656.083 618.237 638.079 613.736 634.856 613.428C623.344 612.328 611.32 611.747 599.743 611.055L541.712 607.521ZM761.218 591.522C756.335 591.536 751.433 591.493 746.56 591.778C735.802 592.035 722.135 591.986 711.589 592.683C711.502 600.91 711.616 609.138 711.933 617.36L725.086 617.035L761.249 616.083C761.42 607.897 761.41 599.708 761.218 591.522ZM941.496 586.459C934.053 586.378 926.609 586.486 919.172 586.781L902.506 587.165C902.492 594.954 902.58 602.982 902.438 610.75L923.479 609.93C929.531 609.506 935.474 609.32 941.501 608.949L941.496 586.459ZM546.17 574.222C542.883 574.089 533.338 573.551 530.483 574.162C533.154 576.204 554.36 578.109 559.508 578.824C583.87 582.21 608.479 584.982 633.03 586.511C639.228 586.884 650.444 585.541 656.842 584.895L657.242 584.271C644.683 576.737 599.302 576.959 583.493 576.162C571.056 575.448 558.615 574.801 546.17 574.222ZM761.065 557.433C755.247 557.522 749.166 557.536 743.372 557.75L711.447 558.46L711.516 583.096C717.594 583.105 723.672 583.062 729.75 582.966C740.241 582.646 750.736 582.487 761.232 582.489C761.339 574.136 761.284 565.782 761.065 557.433ZM902.51 554.508L902.474 578.558C915.424 578.474 928.373 578.275 941.32 577.961C942.056 571.094 941.7 561.465 941.564 554.457L902.51 554.508ZM861.804 546.936C859.186 544.282 855.337 543.254 851.745 544.25C846.37 545.74 843.167 551.249 844.53 556.658C845.893 562.067 851.324 565.399 856.764 564.164C860.399 563.339 863.302 560.609 864.348 557.031C865.394 553.454 864.421 549.59 861.804 546.936ZM549.531 541.337C543.835 541.192 536.068 540.787 530.5 541.246L531.088 542.29C535.789 543.463 556.901 545.249 562.973 545.885C578.915 547.631 594.875 549.205 610.85 550.604C628.538 552.076 638.184 552.738 655.887 549.991L657.163 549.569C655.815 547.154 635.212 544.159 631.477 543.982C614.704 543.183 597.822 542.8 581.037 542.254L549.531 541.337ZM761.098 523.014C747.275 523.004 732.599 522.794 718.811 523.26L710.512 523.444C710.506 531.672 710.728 539.898 711.179 548.114L752.941 548.113L760.871 548.166C761.518 539.011 761.406 532.202 761.098 523.014ZM941.588 522.364C928.575 522.058 915.558 521.984 902.543 522.142L902.444 546.012C915.458 545.855 928.473 545.847 941.486 545.988C941.504 538.268 941.379 530.043 941.588 522.364ZM559.582 508.548C554.723 508.482 533.744 508.007 530.133 508.687C531.001 509.413 531.742 509.934 532.904 510.067C543.952 511.328 555.616 512.009 566.686 512.938L604.279 516.096C623.746 517.717 636.92 518.941 656.41 515.299L657.625 514.799C653.855 512.664 634.941 510.048 630.307 509.793C606.921 508.502 583.03 508.867 559.582 508.548ZM761.411 488.94C755.857 488.731 750.298 488.667 744.741 488.746C733.618 488.899 720.408 488.558 709.545 489.045L710.172 514.113L726.75 514.104C738.15 514.138 749.791 514.544 761.096 514.5C761.608 506.163 761.437 497.332 761.411 488.94ZM941.493 488.51C928.718 488.113 915.273 488.337 902.45 488.519C902.426 496.838 902.319 505.157 902.128 513.475L941.487 513.486L941.493 488.51ZM585.749 475.545C569.488 475.757 545.83 474.401 530.122 475.726C531.395 478.357 538.587 477.925 541.698 478.166C551.839 478.968 561.987 479.685 572.14 480.316C584.743 481.158 597.34 482.076 609.931 483.069C628.461 484.425 637.611 484.786 656.036 481.828L657.628 481.533L657.708 481.109C642.639 473.97 603.232 475.317 585.749 475.545ZM708.917 454.164C708.878 462.04 708.783 471.519 709.301 479.361C726.381 479.587 744.059 480.043 761.095 479.862C761.537 471.42 761.582 462.963 761.229 454.519C744.638 454.435 725.27 454.838 708.917 454.164ZM902.505 454.952L902.441 479.454L941.505 479.638L941.501 455.523C928.507 455.11 915.506 454.92 902.505 454.952ZM660.193 447.455C638.579 443.963 623.857 443.134 601.866 443.516C582.104 443.859 561.525 443.902 541.755 443.741C536.723 443.847 534.486 443.967 529.607 444.685C540.358 446.872 567.782 447.807 579.714 448.348C600.136 449.274 629.618 452.683 648.947 449.423C652.657 448.807 656.524 448.221 660.193 447.455ZM902.452 420.51L902.453 445.438C915.466 445.545 928.478 445.723 941.489 445.97L941.581 421.511C928.602 421.019 915.424 420.394 902.452 420.51ZM761.217 419.985C744.27 419.12 725.133 419.197 708.118 419.456C708.286 427.792 708.404 436.128 708.473 444.465C726.13 444.597 743.382 445.49 761.075 445.41C761.278 436.937 761.325 428.46 761.217 419.985ZM721.657 386.909C712.519 394.233 703.095 402.084 693.683 408.962L898.625 409.687C907.531 409.821 915.913 409.972 924.828 409.577C917.149 405.191 911.317 403.378 903.418 400.221C899.32 398.583 891.414 390.771 887.829 387.508L721.657 386.909ZM826.001 256.041C792.602 281.473 758.429 309.26 725.33 335.302L688.482 364.267C682.144 369.242 673.208 375.805 667.518 381.139C670.2 387.221 672.299 393.318 674.531 399.573C724.683 358.108 775.102 316.966 825.784 276.15L831.237 280.606L925.962 359.396C943.816 374.217 961.828 388.375 979.192 403.854C982.669 399.927 985.755 396.164 988.665 391.782C975.087 379.261 959.678 367.025 945.259 355.366C905.095 322.891 866.132 288.5 826.001 256.041ZM626.775 297.556C624.462 297.987 622.557 298.351 620.568 299.642C612.066 305.165 603.726 311.396 595.393 317.195L552.655 346.873C546.918 350.884 538.109 356.99 532.68 360.977C530.111 362.865 508.754 380.294 508.339 381.171C509.346 381.69 508.825 381.54 509.894 381.652C516.857 380.991 524.537 380.487 531.39 379.693C540.128 372.65 626.777 301.114 628.254 297.984C627.329 297.427 627.824 297.562 626.775 297.556ZM671.32 290.58C668.501 291.114 666.008 291.671 663.586 293.293C654.637 299.289 645.892 305.886 637.018 312.071L597.634 339.27C593.36 342.221 590.171 344.571 584.8 348.193C572.466 356.51 560.636 367.644 549.44 377.512C549.349 377.677 549.258 377.843 549.167 378.009C550.044 378.685 549.544 378.416 551.123 378.251C557.957 377.787 566.283 377.418 572.928 376.435C594.388 358.627 615.717 340.662 636.914 322.543C647.726 313.331 663.245 300.787 672.986 291.3L673.013 290.643L671.32 290.58ZM842.696 354.461C816.945 352.905 787.889 354.616 761.754 353.892C751.611 361.504 743.766 367.748 734.151 375.934C773.18 376.633 812.216 376.845 851.25 376.568C860.266 376.627 869.71 376.829 878.688 376.527C869.795 369.388 866.693 370.555 856.849 365.899C853.43 364.283 846.271 357.296 842.696 354.461ZM714.188 285.031C707.085 286.465 699.056 293.46 693.062 297.748C660.211 321.251 625.63 342.467 595.355 369.386C594.038 370.558 590.105 373.46 589.71 374.838C590.854 375.247 590.296 375.175 591.375 375.131C597.357 374.829 607.835 374.512 613.476 373.282C625.333 363.385 715.295 288.437 715.905 285.426C714.782 284.964 715.357 285.088 714.188 285.031ZM760.646 280.409C759.429 279.82 758.974 280.024 757.604 280.16C751.388 281.89 744.074 288.139 738.662 292.054C732.681 296.302 726.674 300.514 720.639 304.686C700.941 318.399 650.607 352.239 630.656 371.298C630.616 371.433 630.576 371.568 630.537 371.703C631.916 372.381 631.994 372.155 633.671 372.063C636.771 371.811 649.433 371.299 651.304 370.15C658.215 365.903 667.533 358.04 673.909 352.939C702.989 329.407 731.797 305.54 760.326 281.343L760.646 280.409ZM801.022 322.434C791.05 327.562 782.279 336.035 773.733 343.465C784.61 343.801 795.492 343.967 806.375 343.961L833.752 343.783C830.65 341.23 826.648 337.744 823.397 335.553C820.084 335.367 816.881 335.19 813.574 334.876C811.521 332.699 803.104 323.602 801.022 322.434Z" fill="white"/>
<path d="M852.353 859.329C855.988 860.103 859.85 861.723 864.294 862.558C876.533 864.859 887.481 863.835 899.622 862.334C892.908 865.018 885.688 867.126 878.725 869.063C863.443 873.578 848.37 872.951 832.781 871.637C842.436 868.168 845.496 867.198 852.353 859.329Z" fill="white"/>
</g>
<defs>
<filter id="filter0_d_1_140" x="0" y="0" width="1544" height="1623" filterUnits="userSpaceOnUse" color-interpolation-filters="sRGB">
<feFlood flood-opacity="0" result="BackgroundImageFix"/>
<feColorMatrix in="SourceAlpha" type="matrix" values="0 0 0 0 0 0 0 0 0 0 0 0 0 0 0 0 0 0 127 0" result="hardAlpha"/>
<feOffset dy="4"/>
<feGaussianBlur stdDeviation="2"/>
<feComposite in2="hardAlpha" operator="out"/>
<feColorMatrix type="matrix" values="0 0 0 0 0 0 0 0 0 0 0 0 0 0 0 0 0 0 0.25 0"/>
<feBlend mode="normal" in2="BackgroundImageFix" result="effect1_dropShadow_1_140"/>
<feBlend mode="normal" in="SourceGraphic" in2="effect1_dropShadow_1_140" result="shape"/>
</filter>
</defs>
</svg>
