<svg width="1544" height="1623" viewBox="0 0 1544 1623" fill="none" xmlns="http://www.w3.org/2000/svg">
<g filter="url(#filter0_d_1_140)">
<path d="M1117.67 954.257C1126.18 954.012 1134.96 954.393 1143.08 957.204C1147.75 958.82 1152.4 961.48 1154.45 966.23C1159.36 977.626 1132.45 1025.04 1126.74 1038.2C1150.78 1020.15 1175.93 1030.48 1179.68 1060.85C1209.84 1051.3 1225.95 1027.87 1252.86 1014.17C1260.53 1010.27 1283.7 1007.86 1287.57 1018.33C1288.22 1030.78 1267.59 1030.82 1267.61 1048.27C1267.62 1064.66 1271.01 1078.45 1273.09 1094.51C1290.09 1090.52 1302.13 1085.57 1317.27 1076.24C1322.67 1072.92 1334.46 1060.37 1339.28 1059C1339.78 1059.12 1341.45 1059.39 1341.74 1059.77C1365.71 1091.61 1320.64 1107.54 1296.63 1113.43C1288.51 1115.42 1281.13 1116.21 1272.62 1116.94C1265.32 1143.49 1248.46 1155.06 1221.36 1156.54C1189.81 1158.27 1157.12 1131.24 1182.64 1101.56C1192.57 1090.02 1216.32 1091.18 1229.79 1091.63C1228.04 1078.98 1226.44 1068.55 1227.84 1055.76C1214.92 1066.09 1204.74 1072.2 1189.66 1078.83L1178.13 1082.48C1169.19 1111.48 1150.32 1142.25 1119.71 1150.99C1094.33 1158.24 1073.99 1148.18 1066.92 1122.93C1055.37 1134.91 1040.55 1151.72 1023.25 1152.85C1005.58 1154.01 995.069 1143.53 993.858 1126.75C980.735 1141.05 959.323 1158.66 938.087 1150.95C913.621 1140.76 917.996 1110.68 926.296 1089.94C938.099 1060.45 972.511 1019.3 1008.45 1030.6C1015.12 1032.7 1019.5 1040.06 1022.02 1046.54C1027.69 1034.9 1029 1030.45 1044.01 1034.78C1051.62 1036.97 1059.8 1039.33 1057.57 1048.94C1054.33 1062.88 1028.33 1107.87 1034.21 1119.02C1043.07 1125.57 1067.16 1095.31 1069.5 1088.42C1082.95 1048.69 1099.98 1009.99 1112.48 969.966C1113.77 965.851 1114.91 956.792 1117.67 954.257Z" fill="#060A12"/>
<path d="M995.884 1056.87C1003.49 1056.68 1010.49 1062.31 1009.29 1070.48C1006.55 1089.05 989.973 1110.35 973.483 1118.84C944.311 1125.11 971.157 1065.47 995.884 1056.87Z" fill="#F5F6F0"/>
<path d="M1131.71 1058.37C1146.31 1058.86 1143.8 1074.47 1140.71 1084.24C1136.06 1098.98 1127.27 1116.4 1113.26 1123.94C1093.1 1127.27 1106.07 1090.56 1110.81 1081.56C1116.14 1071.42 1120.34 1062.34 1131.71 1058.37Z" fill="#F5F6F0"/>
<path d="M1210.54 1111.84C1211.69 1111.74 1212.84 1111.68 1213.99 1111.65C1218.1 1111.56 1227.63 1111.05 1230.38 1113.69C1232.83 1120.83 1223.76 1129.9 1217.49 1132.61C1196.37 1135.92 1188.62 1116.54 1210.54 1111.84Z" fill="#F5F6F0"/>
<path d="M727.932 956.593C737.998 956.515 755.372 959.22 762.641 967.746C768.03 974.378 761.694 986.106 759.201 992.779C752.833 1009.83 698.526 1106.98 710.168 1120.56C723.306 1127.43 745.727 1091.53 751.915 1082.59C760.986 1092.73 763.053 1099.91 754.502 1112.27C739.88 1133.39 709.602 1164.66 681.967 1147.37C674.488 1142.69 671.476 1134.02 669.944 1125.62C661.166 1136.07 650.663 1147.75 637.133 1151.43C616.348 1157.09 604.53 1145.09 599.534 1126.44C572.83 1152.07 534.086 1173.13 509.227 1132.34C497.797 1144.53 480.047 1159.65 462.199 1156.3C455.988 1155.19 450.505 1151.58 447.035 1146.31C430.897 1122.18 464.866 1080.8 459.679 1074.07C444.765 1073 405.527 1142.94 400.916 1157.15C399.75 1160.74 374.115 1152.74 374.281 1145.94C374.988 1117.01 393.193 1082.91 404.913 1055.93C415.2 1033.17 424.956 1010.19 434.172 986.98C436.877 979.984 438.241 972.476 440.43 965.84C442.847 958.514 463.556 965.201 468.338 967.205C479.253 971.778 480.575 978.733 476.289 989.022C464.923 1016.31 450.023 1041.95 437.648 1068.82C449.354 1056.57 486.783 1015.43 504.895 1035.91C517.911 1050.62 473.972 1109.82 483.062 1122.69C490.736 1127.18 501.757 1113.15 506.369 1107.71C508.074 1075.13 532.684 1038.67 565.337 1030.7C580.147 1026.87 599.923 1030.64 602.666 1048.56C606.714 1075.02 581.683 1100.05 558.34 1107.94C554.472 1109.24 546.044 1110.97 543.949 1114.04C544.278 1118.91 549.398 1125.03 554.078 1126.12C572.885 1130.51 592.073 1108.82 601.861 1094.93C604.752 1089.38 605.653 1083.2 608.192 1077.48C619.732 1051.51 646.88 1019.83 678.574 1028.05C685.907 1029.96 690.942 1036.56 694.368 1043.34C704.276 1016.78 717.501 991.173 724.892 963.647C725.631 960.896 725.93 958.672 727.932 956.593Z" fill="#060A12"/>
<path d="M668.057 1055.35C677.092 1054.84 679.257 1058.33 682.688 1065.72C681.782 1084.67 667.33 1108.27 651.244 1118.14C622.318 1127.1 643.308 1066.47 668.057 1055.35Z" fill="#F5F6F0"/>
<path d="M573.711 1053.02C577.014 1052.59 579.034 1053.12 580.905 1055.9C582.31 1067.63 558.774 1085.27 549.121 1090.15C548.042 1090.64 546.902 1091.02 545.786 1091.44L544.969 1090.66C544.762 1088.77 545.057 1087.24 545.806 1085.49C552.013 1070.99 559.457 1059.82 573.711 1053.02Z" fill="#F5F6F0"/>
<path d="M348.933 917.643C382.914 913.492 434.708 926.188 423.993 971.391C416.938 1001.15 393.677 1026.25 368.75 1042.8C337.96 1063.24 308.715 1061.62 287.595 1028.75C318.447 1023.39 345.82 1012.26 367.125 988.437C385.193 968.23 386.206 949.304 353.631 952.92C326.788 955.899 300.942 967.662 277.423 980.399C261.881 988.816 246.191 999.506 234.673 1013.06C208.074 1043.82 265.172 1053.64 283.839 1058.13C291.357 1059.94 298.824 1061.95 306.234 1064.16C318.671 1067.94 331.165 1072.58 341.623 1080.38C371.35 1102.55 364.768 1138.47 345.167 1164.4C324.718 1190.04 289.801 1201.47 256.395 1201.49C206.155 1201.51 163.462 1162.07 206.21 1116.5C215.583 1106.5 230.207 1102.22 244.134 1102.72C206.907 1159.86 272.389 1180.66 307.696 1141.61C309.334 1139.8 311.422 1136.49 312.44 1134.25C326.284 1103.74 283.768 1093.77 262.684 1089.12C241.733 1084.19 220.289 1080.51 201.075 1070.39C147.546 1042.2 177.825 993.831 214.429 968.6C255.161 940.524 299.695 921.875 348.933 917.643Z" fill="#060A12"/>
<path d="M934.157 927.99C971.166 924.927 998.797 948.531 984.359 986.932C973.72 1015.23 943.914 1034.49 918.184 1047.18C909.521 1051.45 899.422 1054.95 890.278 1058.9C880.663 1085.71 874.691 1107.51 863.67 1134.95C901.563 1153.01 957.464 1169.59 999.071 1169.85C1007.59 1169.88 1016.1 1169.34 1024.55 1168.23C1029.14 1167.64 1034.37 1166.16 1038.93 1165.81C1040.2 1165.71 1040.61 1166.85 1041.36 1167.92C1041.89 1171.32 1041.02 1174 1039.56 1177.01C1014.93 1227.55 948.73 1209.59 909.811 1192.39C891.097 1184.74 867.278 1171.88 848.985 1162.39C845.042 1167.19 841.803 1170.4 837.267 1174.81C817.79 1193.73 775.851 1200.55 756.012 1178.77C744.204 1165.81 749.239 1143.97 763.348 1133.76C781.735 1120.46 802.931 1120.5 824.412 1123.26C830.786 1104.84 836.537 1086.21 841.656 1067.4C817.748 1067.11 786.045 1064.09 796.419 1028.9C797.398 1025.58 800.604 1020.72 803.826 1019.3C806.942 1020.54 809.847 1026.28 811.943 1027.84C822.599 1035.76 838 1036.82 850.18 1036.52C864.1 994.619 885.584 938.549 934.157 927.99Z" fill="#060A12"/>
<path d="M946.24 956.441C950.046 956.094 952.822 955.429 955.612 958.528C959.697 967.622 949.45 982.782 943.992 989.559C933.476 1002.62 920.92 1012.28 906.651 1020.81L900.134 1024.44C907.062 1001.63 923.274 966.35 946.24 956.441Z" fill="#F5F6F0"/>
<path d="M795.184 1144.9C802.998 1144.35 806.381 1145.1 813.876 1146.73C808.129 1155.63 800.525 1161.88 790.858 1166.07C764.447 1171.15 768.242 1148.28 795.184 1144.9Z" fill="#F5F6F0"/>
<path d="M833.683 239.764C824.955 240.963 816.235 242.216 807.523 243.524L794.479 245.27C729.784 256.067 664.445 264.275 599.699 274.817C597.557 275.166 595.072 275.795 593.318 277.108C584.369 284.123 575.385 292.106 566.703 299.459L500.574 355.388C491.393 363.19 473.108 379.759 463.891 385.787C475.444 402.285 485.64 405.181 504.541 406.023L504.469 680.063C488.805 676.181 482.229 670.175 470.782 658.932C463.211 666.792 455.301 673.272 443.641 673.681C429.588 674.173 424.071 662.128 413.498 659.351C410.465 658.554 404.265 665.589 401.138 667.974C398.87 669.695 396.382 671.103 393.741 672.162C385.054 675.674 376.656 675.667 367.463 675.49C375.668 681.039 390.025 687.236 399.951 685.695C413.002 683.669 415.362 685.377 427.778 688.475C437.788 690.874 448.193 691.126 458.308 689.214C461.428 688.627 470.508 686.348 473.197 686.25C482.832 685.903 494.951 690.459 504.534 691.845C504.531 699.794 504.407 708.126 504.723 716.036L527.965 720.311C527.992 732.726 528.185 745.541 528.023 757.922C512.444 751.092 503.54 742.771 495.178 727.891C472.982 740.036 464.278 737.326 446.98 719.873C424.23 730.823 401.096 738.417 381.544 717.68C387.971 746.578 407.747 760.991 437.246 754.141C437.638 754.054 438.027 753.957 438.414 753.851C455.343 767.634 458.547 767.022 479.525 761.702C492.506 775.95 496.361 779.545 515.384 783.713C497.75 784.968 489.814 783.067 477.51 769.636C461.263 782.113 450.62 785.357 429.413 783.301C424.754 782.85 419.569 781.253 415.209 779.507C422.844 792.99 431.457 798.451 446.551 802.341C479.236 810.765 514.975 807.483 545.34 793.175C560.545 805.846 566.909 809.017 586.94 811.114C566.829 813.727 562.675 810.568 545.23 801.971C537.254 811.632 530.215 816.958 517.291 818.167C514.472 818.41 511.644 818.529 508.814 818.523C528.855 832.73 548.766 836.967 573.166 832.879C583.562 831.03 593.737 828.104 603.526 824.147C617.166 830.808 625.909 834.885 641.107 838.481C670.038 844.39 699.781 845.182 728.986 840.82C736.789 839.645 747.508 836.378 754.164 835.72C762.9 834.856 776.035 835.564 785.192 835.5C781.889 838.62 775.359 841.939 771.129 843.695C788.241 847.509 796.759 846.806 813.898 842.465C818.387 841.328 826.619 839.65 831.147 839.281C822.11 851.343 815.139 856.337 800.972 861.63C814.825 864.595 826.002 864.803 839.308 859.225C842.894 857.721 848.629 854.707 852.127 853.557C882.893 860.373 915.105 854.879 941.872 838.25C907.959 849.193 890.333 849.934 860.324 828.92C878.744 827.722 891.778 833.743 910.122 833.033C922.459 832.556 930.451 825.341 941.66 825.623C947.946 825.782 956.977 832.297 964.392 833.485C990.734 837.706 1023.54 831.903 1048.43 823.018C1035.87 824.046 1021.63 825.675 1009.45 821.662C1004.72 819.944 1000.1 816.572 994.997 816.075C986.338 815.232 977.735 817.433 969.073 816.002C962.935 814.988 957.549 810.381 951.569 809.578C943.467 808.491 934.986 812.08 926.846 810.478C906.382 806.128 901.207 797.921 879.342 801.417C893.36 791.612 904.131 794.033 918.98 799.94C930.827 804.654 941.495 800.127 952.798 796.104C967.407 804.791 974.43 807.594 991.922 806.148C995.724 805.833 1001.18 805.203 1005 805.532C1010.96 806.046 1019.48 811.777 1024.99 812.327C1054.67 815.286 1088.57 816.399 1117.93 810.492C1123.67 809.338 1131.37 804.486 1135.54 801.044C1127.34 801.398 1119.13 801.604 1110.93 801.661L1111 720.618C1120.15 719.675 1129.31 718.86 1138.48 718.172C1138.88 707.278 1139.34 696.535 1138.7 685.635L967.932 664.322L967.919 501.875C967.773 473.749 967.775 445.623 967.926 417.497C977.911 417.671 990.032 418.998 996.058 409.578C1000.58 402.513 1004.65 394.912 1009.08 387.766C997.344 377.052 985.164 367.156 973.011 356.943L927.357 318.31C905.551 299.763 883.644 281.336 861.636 263.029C852.466 255.401 842.996 247.053 833.683 239.764Z" fill="black"/>
<path d="M788.723 425.746L842.019 426.076C857.117 426.044 872.994 425.431 887.989 426.48C888.21 456.413 888.242 486.346 888.084 516.279L888.069 675.462C883.82 675.543 878.738 676.068 874.44 676.403L874.573 510.342L874.463 465.664C874.463 461.444 875.178 441.841 873.702 439.687L871.625 439.559C844.99 439.428 818.354 439.479 791.72 439.711C791.265 449.479 791.541 460.748 791.559 470.64L791.584 520.882L791.513 681.362C787.077 681.453 782.459 682.008 778.028 682.451C777.391 650.197 777.913 618.415 777.967 586.171L778.052 426.099L788.723 425.746Z" fill="#FEFEFD"/>
<path d="M969.346 679.716C974.549 679.253 986.844 680.918 992.396 681.646C1001.5 682.86 1010.6 684.028 1019.71 685.149L1121.41 697.021L943.932 713.609L890.004 718.563C860.519 721.231 829.56 724.682 801.048 714.77C817.4 713.788 836.458 711.802 852.548 709.831C855.101 709.49 858.077 708.906 860.613 708.34C878.691 704.31 897.059 702.647 915.34 699.922C920.896 699.093 928.136 698.302 933.371 696.41L817.758 704.533C784.536 706.788 761.551 711.875 729.087 699.797C756.558 697.981 785.2 695.174 812.714 692.861L969.346 679.716Z" fill="#FEFEFD"/>
<path d="M826.001 256.041C866.132 288.5 905.095 322.891 945.259 355.366C959.678 367.025 975.087 379.261 988.665 391.782C985.755 396.164 982.669 399.926 979.192 403.853C961.828 388.374 943.816 374.217 925.962 359.395L831.237 280.606L825.784 276.15C775.102 316.966 724.683 358.108 674.531 399.573C672.299 393.318 670.2 387.221 667.518 381.139C673.208 375.805 682.144 369.242 688.482 364.267L725.33 335.302C758.429 309.26 792.602 281.473 826.001 256.041Z" fill="#FEFEFD"/>
<path d="M689.379 417.743L700.752 417.802C699.847 442.252 700.688 469.065 700.699 493.719L700.895 651.34L700.922 703.545C700.961 713.269 701.452 727.195 700.503 736.475L694.397 736.496L683.037 736.484C682.497 717.513 682.749 696.042 682.741 676.895L682.726 578.677L682.838 480.649C682.901 459.924 682.75 438.624 683.498 417.949L689.379 417.743Z" fill="#FEFEFD"/>
<path d="M721.657 386.909L887.829 387.508C891.414 390.771 899.32 398.583 903.418 400.221C911.317 403.378 917.149 405.191 924.828 409.577C915.913 409.972 907.531 409.821 898.625 409.687L693.683 408.962C703.095 402.084 712.519 394.233 721.657 386.909Z" fill="#FEFEFD"/>
<path d="M997.89 731.25L1004.82 730.697C1005.73 745.341 1005.02 767.711 1004.99 782.962C989.786 780.446 977.297 778.676 962.993 772.494C968.043 769.994 973.111 767.533 978.198 765.11L966.38 764.58C953.663 764.391 940.679 763.823 927.914 763.522C927.919 754.959 927.692 746.203 927.56 737.625C950.195 735.207 975.06 733.199 997.89 731.25Z" fill="#FEFEFD"/>
<path d="M1070.91 724.207C1072.42 724.021 1075.02 723.96 1076.63 723.868C1077.17 747.944 1077.71 775.725 1076.65 799.707C1065.65 799.408 1051.8 798.199 1041.41 795.065L1054.05 791.032C1058.34 789.718 1062.99 788.049 1067.28 786.614C1058.23 786.524 1049.28 785.519 1040.02 785.459C1039.29 766.03 1039.68 746.59 1039.72 727.138C1049.77 725.896 1060.84 725 1070.91 724.207Z" fill="#FEFEFD"/>
<path d="M761.754 353.892C787.889 354.616 816.945 352.905 842.696 354.461C846.271 357.296 853.43 364.283 856.849 365.899C866.693 370.555 869.795 369.388 878.687 376.527C869.709 376.829 860.266 376.627 851.25 376.568C812.216 376.845 773.18 376.633 734.151 375.934C743.766 367.748 751.611 361.505 761.754 353.892Z" fill="#FEFEFD"/>
<path d="M563.174 727.303C581.908 730.473 600.254 734.069 618.895 737.682C631.495 740.123 643.861 741.988 656.426 744.84L656.421 759.975L648.125 759.971C631.939 759.631 619.739 761.075 603.895 763.46C600.259 761.964 596.292 759.972 592.706 758.27C581.264 762.629 575.473 763.599 563.269 764.12C562.762 752.481 562.922 738.955 563.174 727.303Z" fill="#FEFEFD"/>
<path d="M869.979 742.699C871.358 742.507 874.191 742.49 875.691 742.434L874.081 755.749C862.009 756.848 847.559 758.33 835.606 760.081C835.428 779.839 835.391 799.597 835.492 819.355C831.208 819.878 826.917 820.349 822.621 820.769C821.289 821.014 821.349 821.068 820.047 820.77C818.415 818.732 819.424 751.615 819.462 744.346C834.606 747.641 854.205 744.312 869.979 742.699Z" fill="#FEFEFD"/>
<path d="M714.187 285.031C715.357 285.088 714.782 284.964 715.905 285.426C715.295 288.437 625.333 363.385 613.476 373.282C607.836 374.512 597.357 374.829 591.375 375.131C590.296 375.175 590.854 375.247 589.71 374.838C590.105 373.46 594.037 370.558 595.355 369.386C625.63 342.467 660.21 321.251 693.062 297.748C699.056 293.46 707.084 286.465 714.187 285.031Z" fill="#FEFEFD"/>
<path d="M671.32 290.58L673.013 290.642L672.986 291.3C663.245 300.787 647.726 313.331 636.914 322.543C615.717 340.662 594.388 358.626 572.928 376.434C566.283 377.417 557.957 377.787 551.123 378.251C549.544 378.416 550.044 378.685 549.167 378.009C549.258 377.843 549.349 377.677 549.44 377.512C560.636 367.644 572.466 356.51 584.8 348.193C590.171 344.571 593.36 342.221 597.634 339.269L637.018 312.071C645.892 305.886 654.637 299.289 663.586 293.293C666.008 291.671 668.501 291.114 671.32 290.58Z" fill="#FEFEFD"/>
<path d="M757.604 280.16C758.974 280.024 759.428 279.82 760.646 280.409L760.326 281.343C731.797 305.54 702.989 329.407 673.909 352.939C667.533 358.04 658.215 365.903 651.304 370.15C649.434 371.299 636.771 371.811 633.671 372.063C631.994 372.155 631.916 372.381 630.537 371.703C630.576 371.568 630.616 371.433 630.656 371.298C650.607 352.239 700.942 318.398 720.639 304.685C726.674 300.513 732.681 296.302 738.662 292.054C744.074 288.139 751.387 281.89 757.604 280.16Z" fill="#FEFEFD"/>
<path d="M609.294 789.667C621.319 788.155 633.058 801.496 646.318 803.214C659.722 804.95 667.545 803.218 680.581 800.713C703.095 818.803 718.143 816.781 744.14 807.439C741.69 809.444 739.107 811.434 736.617 813.403C715.076 829.03 699.014 827.197 677.496 813.371C645.76 820.996 628.529 811.146 605.008 790.698C605.81 789.842 607.844 789.863 609.294 789.667Z" fill="#FEFEFD"/>
<path d="M708.118 419.456C725.133 419.197 744.27 419.12 761.217 419.985C761.325 428.46 761.278 436.937 761.075 445.41C743.382 445.49 726.13 444.597 708.473 444.465C708.404 436.128 708.286 427.792 708.118 419.456Z" fill="#FEFEFD"/>
<path d="M708.917 454.164C725.27 454.838 744.638 454.434 761.229 454.518C761.582 462.963 761.537 471.42 761.095 479.862C744.059 480.043 726.381 479.587 709.301 479.361C708.783 471.519 708.878 462.04 708.917 454.164Z" fill="#FEFEFD"/>
<path d="M626.775 297.556C627.824 297.562 627.329 297.427 628.254 297.984C626.784 301.108 540.129 372.649 531.39 379.693C524.537 380.487 516.858 380.991 509.894 381.652C508.825 381.54 509.346 381.69 508.339 381.171C508.754 380.294 530.111 362.865 532.68 360.977C538.109 356.99 546.918 350.884 552.655 346.873L595.393 317.195C603.726 311.396 612.066 305.165 620.568 299.642C622.557 298.351 624.461 297.987 626.775 297.556Z" fill="#FEFEFD"/>
<path d="M744.741 488.746C750.298 488.667 755.857 488.732 761.411 488.941C761.437 497.333 761.608 506.163 761.096 514.5C749.791 514.544 738.15 514.138 726.75 514.104L710.172 514.113L709.545 489.045C720.408 488.558 733.618 488.899 744.741 488.746Z" fill="#FEFEFD"/>
<path d="M718.811 523.26C732.6 522.794 747.275 523.004 761.098 523.014C761.406 532.202 761.518 539.011 760.871 548.166L752.941 548.113L711.179 548.114C710.728 539.898 710.506 531.672 710.512 523.444L718.811 523.26Z" fill="#FEFEFD"/>
<path d="M743.372 557.75C749.166 557.536 755.247 557.521 761.065 557.432C761.284 565.782 761.339 574.136 761.232 582.489C750.736 582.487 740.241 582.646 729.75 582.966C723.672 583.062 717.594 583.105 711.516 583.096L711.447 558.46L743.372 557.75Z" fill="#FEFEFD"/>
<path d="M758.969 624.693C759.296 624.737 760.217 625.055 760.573 625.167C762.423 628.552 761.283 645.015 761.12 649.479C745.687 649.493 729.507 651.266 713.875 651.531C713.605 651.526 712.532 651.292 712.222 651.231C710.678 648.334 711.62 631.956 711.769 627.604C725.034 625.628 744.936 625.366 758.969 624.693Z" fill="#FEFEFD"/>
<path d="M746.56 591.778C751.433 591.493 756.335 591.536 761.218 591.522C761.41 599.708 761.42 607.897 761.249 616.083L725.086 617.035L711.933 617.36C711.616 609.138 711.502 600.91 711.589 592.683C722.135 591.986 735.802 592.035 746.56 591.778Z" fill="#FEFEFD"/>
<path d="M752.798 659.706C754.448 659.463 759.265 659.462 761.092 659.425C761.18 667.336 761.031 675.533 760.994 683.467C747.65 685.023 732.914 684.906 719.111 686.436C716.119 686.519 713.003 686.707 710.001 686.843C710.641 678.811 710.766 670.713 711.443 662.553C725.078 661.799 739.147 660.687 752.798 659.706Z" fill="#FEFEFD"/>
<path d="M902.45 488.519C915.273 488.337 928.718 488.113 941.493 488.51L941.487 513.486L902.128 513.475C902.319 505.157 902.426 496.839 902.45 488.519Z" fill="#FEFEFD"/>
<path d="M902.452 420.51C915.424 420.394 928.602 421.019 941.581 421.511L941.489 445.97C928.478 445.723 915.466 445.546 902.453 445.439L902.452 420.51Z" fill="#FEFEFD"/>
<path d="M902.505 454.952C915.506 454.92 928.507 455.111 941.501 455.524L941.505 479.638L902.441 479.454L902.505 454.952Z" fill="#FEFEFD"/>
<path d="M902.51 554.508L941.564 554.457C941.7 561.465 942.056 571.094 941.32 577.961C928.373 578.275 915.424 578.474 902.474 578.558L902.51 554.508Z" fill="#FEFEFD"/>
<path d="M902.543 522.142C915.558 521.984 928.575 522.058 941.588 522.364C941.379 530.043 941.504 538.268 941.486 545.988C928.473 545.847 915.458 545.855 902.444 546.012L902.543 522.142Z" fill="#FEFEFD"/>
<path d="M919.172 586.781C926.609 586.486 934.053 586.378 941.496 586.459L941.501 608.949C935.474 609.32 929.531 609.506 923.479 609.93L902.437 610.75C902.58 602.982 902.492 594.954 902.506 587.165L919.172 586.781Z" fill="#FEFEFD"/>
<path d="M928.53 618.713C931.899 618.368 937.756 618.423 941.312 618.344C941.927 625.582 941.666 633.203 941.503 640.471C933.969 640.487 922.726 641.293 915.122 641.91C910.8 642.232 907.021 642.455 902.693 642.533C902.065 635.329 902.359 627.295 902.504 620.04C911.03 619.472 919.947 619.185 928.53 618.713Z" fill="#FEFEFD"/>
<path d="M938.316 650.724C939.59 650.586 939.633 650.457 940.767 650.974C942.382 654.047 941.637 667.346 941.562 671.612C931.191 672.841 917.673 673.032 906.529 674.083C904.871 674.115 904.682 674.203 903.053 673.729C901.72 671.61 902.389 657.083 902.451 653.492C911.759 651.948 928.595 651.328 938.316 650.724Z" fill="#FEFEFD"/>
<path d="M531.046 641.236C535.216 641.114 539.879 641.297 544.062 641.62C572.686 643.831 601.413 645.61 629.981 648.413C636.663 649.068 651.258 651.809 656.836 655.358L656.424 655.917C640.069 657.709 631.545 657.83 614.816 655.254C595.682 652.307 575.782 649.754 556.696 646.255C551.994 645.393 534.403 643.256 531.046 641.236Z" fill="#FEFEFD"/>
<path d="M531.016 675.63C535.53 674.681 573.351 678.536 579.896 679.406C601.383 682.263 638.108 682.133 657.183 691.322L656.877 691.991C652.761 692.545 637.035 693.629 633.76 693.25C621.576 691.838 537.572 678.856 531.016 675.63Z" fill="#FEFEFD"/>
<path d="M531.335 607.242C534.551 607.11 538.476 607.344 541.712 607.521L599.743 611.055C611.32 611.747 623.344 612.328 634.856 613.428C638.077 613.736 656.083 618.237 657.347 619.649L656.383 620.118C638.739 622.673 624.741 620.98 607.304 619.005C590.647 617.124 574.03 614.904 557.464 612.346C554.05 611.82 532.387 609.094 531.335 607.242Z" fill="#FEFEFD"/>
<path d="M530.122 475.726C545.83 474.401 569.488 475.757 585.749 475.545C603.232 475.317 642.639 473.97 657.708 481.109L657.628 481.533L656.036 481.828C637.611 484.786 628.461 484.425 609.931 483.069C597.34 482.076 584.743 481.158 572.14 480.316C561.987 479.685 551.839 478.968 541.698 478.166C538.587 477.925 531.395 478.357 530.122 475.726Z" fill="#FEFEFD"/>
<path d="M530.483 574.162C533.337 573.551 542.883 574.089 546.17 574.222C558.615 574.801 571.056 575.448 583.493 576.162C599.302 576.959 644.683 576.737 657.242 584.272L656.842 584.895C650.444 585.541 639.228 586.884 633.03 586.511C608.479 584.982 583.87 582.21 559.508 578.824C554.36 578.109 533.152 576.204 530.483 574.162Z" fill="#FEFEFD"/>
<path d="M530.5 541.246C536.068 540.787 543.835 541.192 549.531 541.337L581.037 542.254C597.822 542.8 614.704 543.183 631.477 543.982C635.212 544.159 655.815 547.154 657.163 549.569L655.887 549.991C638.184 552.738 628.538 552.076 610.85 550.604C594.875 549.205 578.915 547.631 562.973 545.885C556.902 545.249 535.789 543.463 531.088 542.29L530.5 541.246Z" fill="#FEFEFD"/>
<path d="M530.133 508.687C533.744 508.007 554.723 508.482 559.582 508.548C583.03 508.867 606.921 508.502 630.307 509.793C634.941 510.048 653.855 512.664 657.625 514.799L656.41 515.299C636.92 518.941 623.746 517.717 604.279 516.096L566.686 512.939C555.616 512.009 543.952 511.328 532.904 510.067C531.742 509.934 531.001 509.413 530.133 508.687Z" fill="#FEFEFD"/>
<path d="M801.022 322.433C803.103 323.6 811.521 332.699 813.574 334.876C816.881 335.19 820.083 335.367 823.397 335.553C826.648 337.744 830.65 341.23 833.752 343.783L806.375 343.961C795.492 343.967 784.61 343.801 773.733 343.465C782.279 336.035 791.049 327.561 801.022 322.433Z" fill="#FEFEFD"/>
<path d="M541.755 443.741C561.525 443.902 582.104 443.859 601.866 443.516C623.857 443.134 638.579 443.963 660.193 447.455C656.524 448.221 652.657 448.807 648.947 449.423C629.618 452.683 600.136 449.274 579.714 448.348C567.782 447.807 540.357 446.872 529.607 444.685C534.486 443.967 536.723 443.847 541.755 443.741Z" fill="#FEFEFD"/>
<path d="M724.518 729.024C733.83 729.586 741.594 731.321 750.746 732.991L783.535 739.017L783.478 750.64C777.377 749.73 770.58 748.128 764.493 746.89C747.144 743.363 737.409 741.641 724.518 729.024Z" fill="#FEFEFD"/>
<path d="M851.745 544.25C855.337 543.254 859.186 544.282 861.804 546.936C864.421 549.59 865.394 553.454 864.348 557.031C863.302 560.609 860.399 563.339 856.764 564.164C851.324 565.399 845.893 562.067 844.53 556.658C843.167 551.249 846.37 545.74 851.745 544.25Z" fill="#FEFEFD"/>
<path d="M702.137 752.756C704.991 753.086 723.086 756.502 724.694 757.639L723.886 758.084C716.626 759.072 709.328 759.764 702.012 760.157L702.137 752.756Z" fill="#FEFEFD"/>
<path d="M852.353 859.329C855.988 860.103 859.85 861.723 864.294 862.558C876.533 864.859 887.481 863.835 899.622 862.334C892.908 865.018 885.688 867.126 878.725 869.063C863.443 873.578 848.37 872.951 832.781 871.637C842.436 868.168 845.496 867.198 852.353 859.329Z" fill="black"/>
</g>
<defs>
<filter id="filter0_d_1_140" x="0" y="0" width="1544" height="1623" filterUnits="userSpaceOnUse" color-interpolation-filters="sRGB">
<feFlood flood-opacity="0" result="BackgroundImageFix"/>
<feColorMatrix in="SourceAlpha" type="matrix" values="0 0 0 0 0 0 0 0 0 0 0 0 0 0 0 0 0 0 127 0" result="hardAlpha"/>
<feOffset dy="4"/>
<feGaussianBlur stdDeviation="2"/>
<feComposite in2="hardAlpha" operator="out"/>
<feColorMatrix type="matrix" values="0 0 0 0 0 0 0 0 0 0 0 0 0 0 0 0 0 0 0.25 0"/>
<feBlend mode="normal" in2="BackgroundImageFix" result="effect1_dropShadow_1_140"/>
<feBlend mode="normal" in="SourceGraphic" in2="effect1_dropShadow_1_140" result="shape"/>
</filter>
</defs>
</svg>
